<?xml version="1.0" standalone="no"?>
<!DOCTYPE svg PUBLIC "-//W3C//DTD SVG 20010904//EN"
 "http://www.w3.org/TR/2001/REC-SVG-20010904/DTD/svg10.dtd">
<svg version="1.0" xmlns="http://www.w3.org/2000/svg"
 width="512.000000pt" height="512.000000pt" viewBox="0 0 512.000000 512.000000"
 preserveAspectRatio="xMidYMid meet">
<metadata>
Created by potrace 1.14, written by Peter Selinger 2001-2017
</metadata>
<g transform="translate(0.000000,512.000000) scale(0.100000,-0.100000)"
fill="#000000" stroke="none">
<path d="M0 2560 l0 -2560 2560 0 2560 0 0 2560 0 2560 -2560 0 -2560 0 0
-2560z m1471 1877 c124 -39 249 -139 302 -242 83 -165 80 -370 -10 -522 -36
-61 -121 -143 -191 -183 l-61 -35 -1 -1442 0 -1443 -200 0 -200 0 0 1445 c0
1204 -2 1445 -13 1445 -22 0 -129 74 -174 120 -49 50 -106 162 -122 238 -71
345 197 658 545 637 44 -3 100 -11 125 -18z m1699 -27 c216 -19 374 -61 533
-142 125 -64 197 -118 294 -222 180 -193 272 -454 260 -741 -6 -143 -26 -236
-78 -361 -62 -148 -189 -312 -307 -397 -50 -36 -55 -26 56 -99 132 -86 288
-278 349 -428 56 -140 67 -202 67 -395 1 -187 -6 -231 -54 -362 -137 -371
-467 -612 -930 -678 -83 -11 -222 -15 -657 -15 l-553 0 0 1925 0 1925 453 0
c248 0 504 -5 567 -10z"/>
<path d="M1230 4149 c-35 -14 -88 -67 -111 -112 -88 -171 54 -358 240 -317 72
16 143 82 161 150 30 110 -29 244 -123 279 -35 14 -133 13 -167 0z"/>
<path d="M2550 3355 l0 -668 283 7 c330 8 417 17 552 58 171 52 264 109 342
213 101 132 140 264 130 440 -15 273 -178 468 -462 554 -143 44 -227 53 -542
58 l-303 5 0 -667z"/>
<path d="M2550 1630 l0 -660 328 0 c344 0 443 8 590 50 150 42 289 128 356
219 93 127 133 265 123 431 -16 268 -179 462 -461 549 -116 36 -240 51 -461
56 -115 3 -270 7 -342 10 l-133 5 0 -660z"/>
</g>
</svg>
