<?xml version="1.0" standalone="no"?>
<!DOCTYPE svg PUBLIC "-//W3C//DTD SVG 20010904//EN"
 "http://www.w3.org/TR/2001/REC-SVG-20010904/DTD/svg10.dtd">
<svg version="1.0" xmlns="http://www.w3.org/2000/svg"
 width="75.000000pt" height="75.000000pt" viewBox="0 0 75.000000 75.000000"
 preserveAspectRatio="xMidYMid meet">
<metadata>
Created by potrace 1.14, written by Peter Selinger 2001-2017
</metadata>
<g transform="translate(0.000000,75.000000) scale(0.100000,-0.100000)"
fill="#000000" stroke="none">
<path d="M0 375 l0 -375 375 0 375 0 0 375 0 375 -375 0 -375 0 0 -375z m180
10 l0 -225 -25 0 -25 0 0 225 0 225 25 0 25 0 0 -225z m343 216 c35 -14 64
-47 71 -82 7 -36 -14 -92 -41 -109 -12 -8 -14 -13 -6 -16 39 -16 56 -42 60
-90 11 -109 -38 -144 -201 -144 l-106 0 0 225 0 225 99 0 c55 0 111 -4 124 -9z"/>
<path d="M360 491 l0 -71 64 0 c75 0 116 24 116 69 0 52 -20 65 -104 69 l-76
4 0 -71z"/>
<path d="M360 290 l0 -80 64 0 c80 0 113 12 126 46 14 37 -4 88 -36 103 -14 6
-54 11 -89 11 l-65 0 0 -80z"/>
</g>
</svg>
